<?xml version="1.0" encoding="utf-8"?>
<!-- Generator: Adobe Illustrator 26.3.1, SVG Export Plug-In . SVG Version: 6.00 Build 0)  -->
<svg version="1.1" id="Layer_1" xmlns="http://www.w3.org/2000/svg" xmlns:xlink="http://www.w3.org/1999/xlink" x="0px" y="0px"
	 viewBox="0 0 32 32" style="enable-background:new 0 0 32 32;" xml:space="preserve">
<style type="text/css">
	.st0{fill:#FFFFFF;}
</style>
<path class="st0" d="M7.4,31.6H0.9V10.8h6.5V31.6z M4.1,7.9c-2.1,0-3.7-1.7-3.7-3.8c0-2.1,1.7-3.7,3.7-3.7c2.1,0,3.7,1.7,3.7,3.7
	C7.9,6.2,6.2,7.9,4.1,7.9z M31.6,31.6h-6.5V21.5c0-2.4,0-5.5-3.4-5.5c-3.4,0-3.9,2.6-3.9,5.3v10.3h-6.5V10.8h6.2v2.8h0.1
	c0.9-1.6,3-3.4,6.1-3.4c6.5,0,7.8,4.3,7.8,9.9L31.6,31.6L31.6,31.6z"/>
</svg>
