<?xml version="1.0" encoding="UTF-8"?><svg id="Layer_1" xmlns="http://www.w3.org/2000/svg" viewBox="0 0 792.61 87.68"><defs><style>.cls-1{fill:#fff;}</style></defs><g><path class="cls-1" d="M25.65,28.65c0-6.21,8.92-8.2,21.16-7.96,14.16,.02,19.43,5.28,19.32,10.33l18.51,.03c-.18-15.58-15.94-25.73-39.13-25.76-22.37-.03-37.46,9.11-37.48,24.19-.04,31.62,61.41,14.95,61.39,29.27,0,6.55-10.44,8.43-23.98,8.29-14.58-.22-20.64-5.4-20.54-10.35l-18.43-.03c-.32,15.5,15.76,25.71,40.45,25.74,23.97,.03,39.96-9.13,39.98-24.29,.06-30.84-61.27-15.68-61.25-29.47"/><path class="cls-1" d="M149.71,7.11l-51.33-.07-.1,73.78,17.38,.02,.04-28.76,33.95,.05c13.66,.02,23.8-7.46,23.82-22.42,.02-12.34-9.08-22.58-23.76-22.6m-2.6,30.25l-31.4-.04,.02-15.6,31.46,.04c5.99,0,8.9,2.43,8.9,8,0,5.57-2.83,7.69-8.92,7.68"/><path class="cls-1" d="M326.37,45.38l-1.21,.02c13.66,.02,22.78-6.64,22.83-18.46,.02-11.26-7.96-19.52-22.68-19.58l-56.38-.22-.28,73.78,17.4,.02,.04-30.52,18.41,.03c11.84,.02,15.27,6.01,28.32,30.68l20.85,.03c-11.59-23.96-10.22-34.52-27.3-35.77m-40.17-9.07l.02-14.44,35.61,.05c5.99,0,8.9,2.25,8.88,7.52,0,4.63-2.77,6.95-8.94,6.92l-35.57-.05Z"/></g><polygon class="cls-1" points="436.75 7.49 353.47 7.37 353.45 22.77 386.34 22.81 386.26 81.19 403.66 81.22 403.74 22.84 436.73 22.88 436.75 7.49"/><path class="cls-1" d="M465.23,7.53l-42.92,73.72,20.35,.03,7.71-13.97,49.07,.07,7.67,13.99,20.41,.03L484.85,7.55l-19.61-.03Zm-6.45,44.37l16.24-29.48,16.16,29.52-32.4-.05Z"/><path class="cls-1" d="M591.49,43.97c11.98-.72,19.64-5.96,19.66-16.73,.02-11.28-8.06-19.52-22.74-19.54l-53.39-.07-.1,73.78,55.54,.08c13.78,.02,22.88-7.76,22.9-19.56,.02-11.5-8.66-17.61-21.94-18.01m-6.52-20.82c5.45,0,8.88,2.01,8.88,7.18,0,5.17-3.54,6.93-9,6.92l-32.4-.05-.08-14.12,32.6,.07Zm2.06,42.9l-34.51-.05,.02-15.18,34.61,.05c5.47,0,8.9,2.43,8.9,7.7,0,5.27-3.45,7.48-8.92,7.48"/><polygon class="cls-1" points="641.83 7.77 624.41 7.75 624.31 81.53 688.78 81.62 688.8 66.24 641.75 66.17 641.83 7.77"/><polygon class="cls-1" points="695.69 81.63 764.71 81.72 764.74 66.34 713.13 66.27 713.15 51.41 763.84 51.48 763.86 37.04 713.17 36.97 713.19 23.27 764.8 23.34 764.82 7.94 695.79 7.85 695.69 81.63"/><g><path class="cls-1" d="M249.6,40.47c-.57-11.67-5.68-22.66-14.24-30.62l-.2-.28c-8.26-7.22-20.58-7.23-28.86-.04l-.28,.24c-8.59,7.94-13.74,18.92-14.34,30.6l-14.09-.32v6.89l13.82,.32c.58,11.61,5.67,22.54,14.18,30.46l.58,.52c8.22,7.05,20.35,7.07,28.58,.04l.58-.52c8.53-7.9,13.65-18.81,14.26-30.42l14.18-.04v-6.97l-14.17,.14Zm-24,25.37c-.08,.08-.16,.15-.24,.22-2.77,2.37-6.85,2.36-9.61-.01l-.24-.22c-5.98-5.73-9.28-13.7-9.1-21.98-.18-8.33,3.15-16.35,9.18-22.1l.18-.16c2.79-2.39,6.9-2.38,9.69,.01l.18,.16c6.01,5.77,9.31,13.8,9.1,22.12,.19,8.31-3.12,16.32-9.14,22.06"/><path class="cls-1" d="M773.94,10.25c-3.05,2.97-3.11,7.85-.14,10.9,.04,.04,.08,.08,.12,.12,1.5,1.51,3.54,2.34,5.67,2.3,2.12,.05,4.17-.78,5.66-2.29,3.05-2.96,3.12-7.82,.17-10.87-.05-.05-.1-.1-.15-.15-3.14-3.04-8.13-3.05-11.28-.02m1.28,9.89c-1.14-1.14-1.77-2.7-1.75-4.32-.04-1.63,.59-3.2,1.76-4.33,1.15-1.15,2.71-1.78,4.34-1.75,1.6-.03,3.14,.61,4.25,1.76,1.16,1.12,1.8,2.68,1.77,4.3,.01,1.62-.63,3.17-1.78,4.31-1.11,1.16-2.65,1.8-4.26,1.77-1.63,.01-3.19-.64-4.33-1.8m1.47-7.93v7.23h1.53v-2.73h.7l2.19,2.72h1.86l-2.35-2.74c.63-.04,1.22-.29,1.7-.7,.4-.39,.62-.94,.6-1.5,.04-.65-.25-1.28-.76-1.68-.62-.45-1.37-.67-2.14-.62l-3.34,.02Zm4.65,2.28c0,.66-.44,.98-1.34,.98h-1.78v-1.92h1.78c.9,0,1.34,.32,1.34,.96"/></g></svg>